<svg width="800" height="800" viewBox="0 0 800 800" fill="none" xmlns="http://www.w3.org/2000/svg">
<g clip-path="url(#clip0_669_2083)">
<path d="M12.6818 53.4842C15.5621 52.8042 18.4063 51.8802 21.1371 50.7402L21.6802 50.5163V0.000236511H11.5947V53.7402L12.6818 53.4842Z" fill="black" fill-opacity="0.2"/>
<path d="M4.22704 54.7971L5.0436 54.7331V0.00109863H0V54.9531C0 54.9531 0.000625 54.9531 0.0009375 54.9531C1.40781 54.9531 2.82953 54.9011 4.22704 54.7971Z" fill="black" fill-opacity="0.2"/>
<path d="M46.499 29.3008C52.0302 20.5408 54.9538 10.4088 54.9538 0.000785828H44.8682V31.8848L46.499 29.3008Z" fill="black" fill-opacity="0.2"/>
<path d="M29.5913 46.3176C32.6089 44.3856 35.4533 42.1416 38.045 39.6536L38.3168 39.3936V0.00156784H28.2314V47.1855L29.5913 46.3176Z" fill="black" fill-opacity="0.2"/>
<path d="M82.5931 21.1377L82.8199 21.6816H183.848L184.074 21.1377C185.214 18.4057 186.136 15.5616 186.816 12.6816L187.072 11.5977H79.5947L79.8515 12.6816C80.5319 15.5656 81.4543 18.4097 82.5931 21.1377Z" fill="black" fill-opacity="0.2"/>
<path d="M78.5405 4.22891L78.6025 5.04492H188.066L188.128 4.22891C188.234 2.82891 188.287 1.41694 188.287 0.000937939H78.3809C78.3809 1.40894 78.4345 2.82891 78.5405 4.22891Z" fill="black" fill-opacity="0.2"/>
<path d="M104.035 46.5011C112.795 52.0331 122.926 54.9531 133.334 54.9531C143.741 54.9531 153.873 52.0331 162.633 46.5011L165.216 44.8691H101.452L104.035 46.5011Z" fill="black" fill-opacity="0.2"/>
<path d="M180.519 28.2324H86.1494L87.0198 29.5924C88.9522 32.6084 91.193 35.4524 93.6806 38.0444L93.9414 38.3164H172.727L172.988 38.0444C175.475 35.4524 177.716 32.6084 179.648 29.5924L180.519 28.2324Z" fill="black" fill-opacity="0.2"/>
<path d="M279.348 53.4842C282.228 52.8042 285.072 51.8802 287.803 50.7402L288.346 50.5163V0.000236511H278.261V53.7402L279.348 53.4842Z" fill="black" fill-opacity="0.2"/>
<path d="M220.169 29.3008L221.8 31.8848V0.000785828H211.714C211.714 10.4088 214.638 20.5408 220.169 29.3008Z" fill="black" fill-opacity="0.2"/>
<path d="M262.441 54.7971C263.839 54.9011 265.261 54.9531 266.668 54.9531C268.075 54.9531 269.496 54.9011 270.894 54.7971L271.71 54.7331V0.00109863H261.625V54.7331L262.441 54.7971Z" fill="black" fill-opacity="0.2"/>
<path d="M228.622 39.6536C231.214 42.1416 234.058 44.3856 237.076 46.3176L238.436 47.1855V0.00156784H228.351V39.3936L228.622 39.6536Z" fill="black" fill-opacity="0.2"/>
<path d="M245.531 50.7402C248.261 51.8802 251.106 52.8042 253.986 53.4842L255.073 53.7402V0.000236511H244.987V50.5163L245.531 50.7402Z" fill="black" fill-opacity="0.2"/>
<path d="M313.165 29.3008C318.696 20.5408 321.62 10.4088 321.62 0.000785828H311.534V31.8848L313.165 29.3008Z" fill="black" fill-opacity="0.2"/>
<path d="M296.258 46.3176C299.276 44.3856 302.12 42.1416 304.712 39.6536L304.984 39.3936V0.00156784H294.898V47.1855L296.258 46.3176Z" fill="black" fill-opacity="0.2"/>
<path d="M349.259 21.1377L349.486 21.6816H450.516L450.74 21.1377C451.88 18.4057 452.804 15.5616 453.484 12.6816L453.74 11.5977H346.261L346.518 12.6816C347.198 15.5656 348.121 18.4097 349.259 21.1377Z" fill="black" fill-opacity="0.2"/>
<path d="M345.207 4.22891L345.269 5.04492H454.732L454.792 4.22891C454.9 2.82891 454.952 1.41694 454.952 0.000937939H345.047C345.047 1.40894 345.1 2.82891 345.207 4.22891Z" fill="black" fill-opacity="0.2"/>
<path d="M431.884 44.8691H368.119L370.702 46.5011C379.462 52.0331 389.593 54.9531 400 54.9531C410.408 54.9531 420.54 52.0331 429.3 46.5011L431.884 44.8691Z" fill="black" fill-opacity="0.2"/>
<path d="M439.652 38.0444C442.14 35.4524 444.384 32.6084 446.316 29.5924L447.184 28.2324H352.815L353.686 29.5924C355.618 32.6084 357.859 35.4524 360.347 38.0444L360.608 38.3164H439.392L439.652 38.0444Z" fill="black" fill-opacity="0.2"/>
<path d="M546.016 53.4842C548.896 52.8042 551.74 51.8802 554.468 50.7402L555.012 50.5163V0.000236511H544.928V53.7402L546.016 53.4842Z" fill="black" fill-opacity="0.2"/>
<path d="M486.836 29.3008L488.464 31.8848V0.000785828H478.38C478.38 10.4088 481.304 20.5408 486.836 29.3008Z" fill="black" fill-opacity="0.2"/>
<path d="M529.108 54.7971C530.504 54.9011 531.928 54.9531 533.332 54.9531C534.74 54.9531 536.16 54.9011 537.56 54.7971L538.376 54.7331V0.00109863H528.292V54.7331L529.108 54.7971Z" fill="black" fill-opacity="0.2"/>
<path d="M495.288 39.6536C497.88 42.1416 500.724 44.3856 503.744 46.3176L505.104 47.1855V0.00156784H495.016V39.3936L495.288 39.6536Z" fill="black" fill-opacity="0.2"/>
<path d="M512.195 50.7402C514.927 51.8802 517.771 52.8042 520.651 53.4842L521.739 53.7402V0.000236511H511.651V50.5163L512.195 50.7402Z" fill="black" fill-opacity="0.2"/>
<path d="M579.832 29.3008C585.364 20.5408 588.288 10.4088 588.288 0.000785828H578.2V31.8848L579.832 29.3008Z" fill="black" fill-opacity="0.2"/>
<path d="M562.923 46.3176C565.939 44.3856 568.784 42.1416 571.376 39.6536L571.647 39.3936V0.00156784H561.563V47.1855L562.923 46.3176Z" fill="black" fill-opacity="0.2"/>
<path d="M615.924 21.1377L616.152 21.6816H717.18L717.408 21.1377C718.548 18.4057 719.468 15.5616 720.148 12.6816L720.404 11.5977H612.928L613.184 12.6816C613.864 15.5656 614.788 18.4097 615.924 21.1377Z" fill="black" fill-opacity="0.2"/>
<path d="M611.872 4.22891L611.936 5.04492H721.4L721.46 4.22891C721.568 2.82891 721.62 1.41694 721.62 0.000937939H611.712C611.712 1.40894 611.768 2.82891 611.872 4.22891Z" fill="black" fill-opacity="0.2"/>
<path d="M698.548 44.8691H634.784L637.368 46.5011C646.128 52.0331 656.26 54.9531 666.668 54.9531C677.072 54.9531 687.204 52.0331 695.964 46.5011L698.548 44.8691Z" fill="black" fill-opacity="0.2"/>
<path d="M706.32 38.0444C708.808 35.4524 711.048 32.6084 712.98 29.5924L713.852 28.2324H619.48L620.352 29.5924C622.284 32.6084 624.524 35.4524 627.012 38.0444L627.272 38.3164H706.06L706.32 38.0444Z" fill="black" fill-opacity="0.2"/>
<path d="M753.5 29.3008L755.132 31.8848V0.000785828H745.048C745.048 10.4088 747.968 20.5408 753.5 29.3008Z" fill="black" fill-opacity="0.2"/>
<path d="M795.773 54.7971C797.173 54.9011 798.593 54.9531 800.001 54.9531V0.00109863H794.957V54.7331L795.773 54.7971Z" fill="black" fill-opacity="0.2"/>
<path d="M761.957 39.6536C764.549 42.1416 767.393 44.3856 770.409 46.3176L771.769 47.1855V0.00156784H761.685V39.3936L761.957 39.6536Z" fill="black" fill-opacity="0.2"/>
<path d="M778.864 50.7402C781.592 51.8802 784.44 52.8042 787.32 53.4842L788.404 53.7402V0.000236511H778.32V50.5163L778.864 50.7402Z" fill="black" fill-opacity="0.2"/>
<path d="M21.1366 749.26C18.4052 748.12 15.5605 747.196 12.6818 746.516L11.5947 746.26V800H21.6802V749.484L21.1366 749.26Z" fill="black" fill-opacity="0.2"/>
<path d="M4.22704 745.204C2.82984 745.1 1.41484 745.048 0 745.048V800H5.0436V745.268L4.22704 745.204Z" fill="black" fill-opacity="0.2"/>
<path d="M46.499 770.7L44.8682 768.116V800H54.9538C54.9538 789.592 52.0302 779.46 46.499 770.7Z" fill="black" fill-opacity="0.2"/>
<path d="M38.045 760.344C35.4527 757.856 32.6085 755.616 29.5913 753.684L28.2314 752.816V800H38.3168V760.604L38.045 760.344Z" fill="black" fill-opacity="0.2"/>
<path d="M101.452 755.132H165.216L162.633 753.5C153.873 747.968 143.741 745.048 133.334 745.048C122.926 745.048 112.795 747.968 104.035 753.5L101.452 755.132Z" fill="black" fill-opacity="0.2"/>
<path d="M188.128 795.772L188.066 794.956H78.6025L78.5405 795.772C78.4345 797.172 78.3809 798.592 78.3809 800H188.287C188.287 798.584 188.234 797.168 188.128 795.772Z" fill="black" fill-opacity="0.2"/>
<path d="M93.6806 761.957C91.193 764.549 88.9522 767.393 87.0198 770.409L86.1494 771.769H180.519L179.648 770.409C177.716 767.393 175.475 764.549 172.988 761.957L172.727 761.685H93.9414L93.6806 761.957Z" fill="black" fill-opacity="0.2"/>
<path d="M184.074 778.864L183.848 778.32H82.8199L82.5931 778.864C81.4543 781.592 80.5319 784.44 79.8515 787.32L79.5947 788.404H187.072L186.816 787.32C186.136 784.44 185.214 781.596 184.074 778.864Z" fill="black" fill-opacity="0.2"/>
<path d="M287.802 749.26C285.071 748.12 282.226 747.196 279.348 746.516L278.261 746.26V800H288.346V749.484L287.802 749.26Z" fill="black" fill-opacity="0.2"/>
<path d="M220.169 770.7C214.638 779.46 211.714 789.592 211.714 800H221.8V768.116L220.169 770.7Z" fill="black" fill-opacity="0.2"/>
<path d="M270.894 745.204C268.1 744.992 265.235 744.992 262.441 745.204L261.625 745.268V800H271.71V745.268L270.894 745.204Z" fill="black" fill-opacity="0.2"/>
<path d="M237.076 753.684C234.059 755.616 231.215 757.856 228.622 760.344L228.351 760.604V800H238.436V752.816L237.076 753.684Z" fill="black" fill-opacity="0.2"/>
<path d="M253.986 746.516C251.107 747.196 248.262 748.12 245.531 749.26L244.987 749.484V800H255.073V746.26L253.986 746.516Z" fill="black" fill-opacity="0.2"/>
<path d="M313.165 770.7L311.534 768.116V800H321.62C321.62 789.592 318.696 779.46 313.165 770.7Z" fill="black" fill-opacity="0.2"/>
<path d="M304.712 760.344C302.119 757.856 299.276 755.616 296.258 753.684L294.898 752.816V800H304.984V760.604L304.712 760.344Z" fill="black" fill-opacity="0.2"/>
<path d="M368.119 755.132H431.884L429.3 753.5C420.54 747.968 410.408 745.048 400 745.048C389.593 745.048 379.462 747.968 370.702 753.5L368.119 755.132Z" fill="black" fill-opacity="0.2"/>
<path d="M454.792 795.772L454.732 794.956H345.269L345.207 795.772C345.1 797.172 345.047 798.592 345.047 800H454.952C454.952 798.584 454.9 797.168 454.792 795.772Z" fill="black" fill-opacity="0.2"/>
<path d="M360.347 761.957C357.859 764.549 355.618 767.393 353.686 770.409L352.815 771.769H447.184L446.316 770.409C444.384 767.393 442.14 764.549 439.652 761.957L439.392 761.685H360.608L360.347 761.957Z" fill="black" fill-opacity="0.2"/>
<path d="M450.74 778.864L450.516 778.32H349.486L349.259 778.864C348.121 781.592 347.198 784.44 346.518 787.32L346.261 788.404H453.74L453.484 787.32C452.804 784.44 451.88 781.596 450.74 778.864Z" fill="black" fill-opacity="0.2"/>
<path d="M554.468 749.26C551.736 748.12 548.892 747.196 546.016 746.516L544.928 746.26V800H555.012V749.484L554.468 749.26Z" fill="black" fill-opacity="0.2"/>
<path d="M486.836 770.7C481.304 779.46 478.38 789.592 478.38 800H488.464V768.116L486.836 770.7Z" fill="black" fill-opacity="0.2"/>
<path d="M537.56 745.204C534.764 744.992 531.9 744.992 529.108 745.204L528.292 745.268V800H538.376V745.268L537.56 745.204Z" fill="black" fill-opacity="0.2"/>
<path d="M503.744 753.684C500.724 755.616 497.88 757.856 495.288 760.344L495.016 760.604V800H505.104V752.816L503.744 753.684Z" fill="black" fill-opacity="0.2"/>
<path d="M520.651 746.516C517.771 747.196 514.927 748.12 512.195 749.26L511.651 749.484V800H521.739V746.26L520.651 746.516Z" fill="black" fill-opacity="0.2"/>
<path d="M579.832 770.7L578.2 768.116V800H588.288C588.288 789.592 585.364 779.46 579.832 770.7Z" fill="black" fill-opacity="0.2"/>
<path d="M571.376 760.344C568.784 757.856 565.939 755.616 562.923 753.684L561.563 752.816V800H571.647V760.604L571.376 760.344Z" fill="black" fill-opacity="0.2"/>
<path d="M634.784 755.132H698.548L695.964 753.5C687.204 747.968 677.072 745.048 666.668 745.048C656.26 745.048 646.128 747.968 637.368 753.5L634.784 755.132Z" fill="black" fill-opacity="0.2"/>
<path d="M721.46 795.772L721.4 794.956H611.936L611.872 795.772C611.768 797.172 611.712 798.592 611.712 800H721.62C721.62 798.584 721.568 797.168 721.46 795.772Z" fill="black" fill-opacity="0.2"/>
<path d="M627.012 761.957C624.524 764.549 622.284 767.393 620.352 770.409L619.48 771.769H713.852L712.98 770.409C711.048 767.393 708.808 764.549 706.32 761.957L706.06 761.685H627.272L627.012 761.957Z" fill="black" fill-opacity="0.2"/>
<path d="M717.408 778.864L717.18 778.32H616.152L615.924 778.864C614.788 781.592 613.864 784.44 613.184 787.32L612.928 788.404H720.404L720.148 787.32C719.468 784.44 718.548 781.596 717.408 778.864Z" fill="black" fill-opacity="0.2"/>
<path d="M753.5 770.7C747.968 779.46 745.048 789.592 745.048 800H755.132V768.116L753.5 770.7Z" fill="black" fill-opacity="0.2"/>
<path d="M795.773 745.204L794.957 745.268V800H800.001V745.048C798.585 745.048 797.169 745.1 795.773 745.204Z" fill="black" fill-opacity="0.2"/>
<path d="M770.409 753.684C767.393 755.616 764.549 757.856 761.957 760.344L761.685 760.604V800H771.769V752.816L770.409 753.684Z" fill="black" fill-opacity="0.2"/>
<path d="M787.32 746.516C784.44 747.196 781.596 748.12 778.864 749.26L778.32 749.484V800H788.404V746.26L787.32 746.516Z" fill="black" fill-opacity="0.2"/>
<path d="M12.6818 213.184L11.5947 212.928V320.404L12.6818 320.148C15.5621 319.468 18.4063 318.544 21.1371 317.408L21.6802 317.18V216.152L21.1366 215.924C18.4052 214.788 15.5605 213.864 12.6818 213.184Z" fill="black" fill-opacity="0.2"/>
<path d="M4.22704 321.461L5.0436 321.401V211.937L4.22704 211.873C2.82984 211.769 1.41484 211.713 0 211.713V321.621C0 321.621 0.000625 321.621 0.0009375 321.621C1.40781 321.621 2.82953 321.569 4.22704 321.461Z" fill="black" fill-opacity="0.2"/>
<path d="M44.8682 234.785V298.549L46.499 295.965C52.0302 287.205 54.9538 277.077 54.9538 266.669C54.9538 256.261 52.0302 246.129 46.499 237.369L44.8682 234.785Z" fill="black" fill-opacity="0.2"/>
<path d="M29.5913 220.354L28.2314 219.482V313.854L29.5913 312.982C32.6089 311.05 35.4533 308.81 38.045 306.322L38.3168 306.062V227.274L38.045 227.014C35.4527 224.526 32.6085 222.286 29.5913 220.354Z" fill="black" fill-opacity="0.2"/>
<path d="M184.074 287.806C185.214 285.074 186.136 282.23 186.816 279.35L187.072 278.262H79.5947L79.8515 279.35C80.5319 282.23 81.4543 285.074 82.5931 287.806L82.8199 288.35H183.848L184.074 287.806Z" fill="black" fill-opacity="0.2"/>
<path d="M101.452 221.801H165.216L162.633 220.169C153.873 214.637 143.741 211.713 133.334 211.713C122.926 211.713 112.795 214.637 104.035 220.169L101.452 221.801Z" fill="black" fill-opacity="0.2"/>
<path d="M78.6025 271.709H188.066L188.128 270.893C188.34 268.101 188.34 265.233 188.128 262.441L188.066 261.625H78.6025L78.5405 262.441C78.4345 263.841 78.3809 265.261 78.3809 266.669C78.3809 268.073 78.4345 269.497 78.5405 270.893L78.6025 271.709Z" fill="black" fill-opacity="0.2"/>
<path d="M172.988 228.625L172.727 228.353H93.9414L93.6806 228.625C91.193 231.213 88.9522 234.062 87.0198 237.078L86.1494 238.438H180.519L179.648 237.078C177.716 234.062 175.475 231.217 172.988 228.625Z" fill="black" fill-opacity="0.2"/>
<path d="M82.5931 245.532C81.4543 248.26 80.5319 251.104 79.8515 253.984L79.5947 255.072H187.072L186.816 253.988C186.136 251.108 185.214 248.264 184.074 245.532L183.848 244.988H82.8199L82.5931 245.532Z" fill="black" fill-opacity="0.2"/>
<path d="M104.035 313.165C112.795 318.697 122.926 321.621 133.334 321.621C143.741 321.621 153.873 318.697 162.633 313.165L165.216 311.537H101.452L104.035 313.165Z" fill="black" fill-opacity="0.2"/>
<path d="M180.519 294.896H86.1494L87.0198 296.256C88.9522 299.276 91.193 302.12 93.6806 304.712L93.9414 304.984H172.727L172.988 304.712C175.475 302.12 177.716 299.276 179.648 296.256L180.519 294.896Z" fill="black" fill-opacity="0.2"/>
<path d="M288.346 317.18V216.152L287.802 215.924C285.071 214.788 282.226 213.864 279.348 213.184L278.261 212.928V320.404L279.348 320.148C282.228 319.468 285.072 318.544 287.803 317.408L288.346 317.18Z" fill="black" fill-opacity="0.2"/>
<path d="M221.8 298.549V234.785L220.169 237.369C214.638 246.129 211.714 256.261 211.714 266.669C211.714 277.077 214.638 287.205 220.169 295.965L221.8 298.549Z" fill="black" fill-opacity="0.2"/>
<path d="M270.894 321.461L271.71 321.401V211.937L270.894 211.873C268.1 211.661 265.235 211.661 262.441 211.873L261.625 211.937V321.401L262.441 321.461C263.839 321.569 265.261 321.621 266.668 321.621C268.075 321.621 269.496 321.569 270.894 321.461Z" fill="black" fill-opacity="0.2"/>
<path d="M228.351 227.274V306.062L228.622 306.322C231.214 308.81 234.058 311.05 237.076 312.982L238.436 313.854V219.482L237.076 220.354C234.059 222.286 231.215 224.526 228.622 227.014L228.351 227.274Z" fill="black" fill-opacity="0.2"/>
<path d="M255.073 320.404V212.928L253.986 213.184C251.107 213.864 248.262 214.788 245.531 215.924L244.987 216.152V317.18L245.531 317.408C248.261 318.544 251.106 319.468 253.986 320.148L255.073 320.404Z" fill="black" fill-opacity="0.2"/>
<path d="M311.534 234.785V298.549L313.165 295.965C318.696 287.205 321.62 277.077 321.62 266.669C321.62 256.261 318.696 246.129 313.165 237.369L311.534 234.785Z" fill="black" fill-opacity="0.2"/>
<path d="M304.984 306.062V227.274L304.712 227.014C302.119 224.526 299.276 222.286 296.258 220.354L294.898 219.482V313.854L296.258 312.982C299.276 311.05 302.12 308.81 304.712 306.322L304.984 306.062Z" fill="black" fill-opacity="0.2"/>
<path d="M346.518 279.35C347.198 282.23 348.121 285.074 349.259 287.806L349.486 288.35H450.516L450.74 287.806C451.88 285.074 452.804 282.23 453.484 279.35L453.74 278.262H346.261L346.518 279.35Z" fill="black" fill-opacity="0.2"/>
<path d="M429.3 220.169C420.54 214.637 410.408 211.713 400 211.713C389.593 211.713 379.462 214.637 370.702 220.169L368.119 221.801H431.884L429.3 220.169Z" fill="black" fill-opacity="0.2"/>
<path d="M454.732 261.625H345.269L345.207 262.441C345.1 263.841 345.047 265.261 345.047 266.669C345.047 268.073 345.1 269.497 345.207 270.893L345.269 271.709H454.732L454.792 270.893C455.008 268.101 455.008 265.233 454.792 262.441L454.732 261.625Z" fill="black" fill-opacity="0.2"/>
<path d="M352.815 238.438H447.184L446.316 237.078C444.384 234.062 442.14 231.217 439.652 228.625L439.392 228.353H360.608L360.347 228.625C357.859 231.213 355.618 234.062 353.686 237.078L352.815 238.438Z" fill="black" fill-opacity="0.2"/>
<path d="M349.259 245.532C348.121 248.26 347.198 251.104 346.518 253.984L346.261 255.072H453.74L453.484 253.988C452.804 251.108 451.88 248.264 450.74 245.532L450.516 244.988H349.486L349.259 245.532Z" fill="black" fill-opacity="0.2"/>
<path d="M431.884 311.537H368.119L370.702 313.165C379.462 318.697 389.593 321.621 400 321.621C410.408 321.621 420.54 318.697 429.3 313.165L431.884 311.537Z" fill="black" fill-opacity="0.2"/>
<path d="M439.652 304.712C442.14 302.12 444.384 299.276 446.316 296.256L447.184 294.896H352.815L353.686 296.256C355.618 299.276 357.859 302.12 360.347 304.712L360.608 304.984H439.392L439.652 304.712Z" fill="black" fill-opacity="0.2"/>
<path d="M555.012 317.18V216.152L554.468 215.924C551.736 214.788 548.892 213.864 546.016 213.184L544.928 212.928V320.404L546.016 320.148C548.896 319.468 551.74 318.544 554.468 317.408L555.012 317.18Z" fill="black" fill-opacity="0.2"/>
<path d="M486.836 295.965L488.464 298.549V234.785L486.836 237.369C481.304 246.129 478.38 256.261 478.38 266.669C478.38 277.077 481.304 287.205 486.836 295.965Z" fill="black" fill-opacity="0.2"/>
<path d="M537.56 321.461L538.376 321.401V211.937L537.56 211.873C534.764 211.661 531.9 211.661 529.108 211.873L528.292 211.937V321.401L529.108 321.461C530.504 321.569 531.928 321.621 533.332 321.621C534.74 321.621 536.16 321.569 537.56 321.461Z" fill="black" fill-opacity="0.2"/>
<path d="M495.016 227.274V306.062L495.288 306.322C497.88 308.81 500.724 311.05 503.744 312.982L505.104 313.854V219.482L503.744 220.354C500.724 222.286 497.88 224.526 495.288 227.014L495.016 227.274Z" fill="black" fill-opacity="0.2"/>
<path d="M521.739 320.404V212.928L520.651 213.184C517.771 213.864 514.927 214.788 512.195 215.924L511.651 216.152V317.18L512.195 317.408C514.927 318.544 517.771 319.468 520.651 320.148L521.739 320.404Z" fill="black" fill-opacity="0.2"/>
<path d="M578.2 234.785V298.549L579.832 295.965C585.364 287.205 588.288 277.077 588.288 266.669C588.288 256.261 585.364 246.129 579.832 237.369L578.2 234.785Z" fill="black" fill-opacity="0.2"/>
<path d="M571.647 306.062V227.274L571.376 227.014C568.784 224.526 565.939 222.286 562.923 220.354L561.563 219.482V313.854L562.923 312.982C565.939 311.05 568.784 308.81 571.376 306.322L571.647 306.062Z" fill="black" fill-opacity="0.2"/>
<path d="M613.184 279.35C613.864 282.23 614.788 285.074 615.924 287.806L616.152 288.35H717.18L717.408 287.806C718.548 285.074 719.468 282.23 720.148 279.35L720.404 278.262H612.928L613.184 279.35Z" fill="black" fill-opacity="0.2"/>
<path d="M695.964 220.169C687.204 214.637 677.072 211.713 666.668 211.713C656.26 211.713 646.128 214.637 637.368 220.169L634.784 221.801H698.548L695.964 220.169Z" fill="black" fill-opacity="0.2"/>
<path d="M721.4 261.625H611.936L611.872 262.441C611.768 263.841 611.712 265.261 611.712 266.669C611.712 268.073 611.768 269.497 611.872 270.893L611.936 271.709H721.4L721.46 270.893C721.672 268.101 721.672 265.233 721.46 262.441L721.4 261.625Z" fill="black" fill-opacity="0.2"/>
<path d="M619.48 238.438H713.852L712.98 237.078C711.048 234.062 708.808 231.217 706.32 228.625L706.06 228.353H627.272L627.012 228.625C624.524 231.213 622.284 234.062 620.352 237.078L619.48 238.438Z" fill="black" fill-opacity="0.2"/>
<path d="M615.924 245.532C614.788 248.26 613.864 251.104 613.184 253.984L612.928 255.072H720.404L720.148 253.988C719.468 251.108 718.548 248.264 717.408 245.532L717.18 244.988H616.152L615.924 245.532Z" fill="black" fill-opacity="0.2"/>
<path d="M698.548 311.537H634.784L637.368 313.165C646.128 318.697 656.26 321.621 666.668 321.621C677.072 321.621 687.204 318.697 695.964 313.165L698.548 311.537Z" fill="black" fill-opacity="0.2"/>
<path d="M706.32 304.712C708.808 302.12 711.048 299.276 712.98 296.256L713.852 294.896H619.48L620.352 296.256C622.284 299.276 624.524 302.12 627.012 304.712L627.272 304.984H706.06L706.32 304.712Z" fill="black" fill-opacity="0.2"/>
<path d="M755.132 298.549V234.785L753.5 237.369C747.968 246.129 745.048 256.261 745.048 266.669C745.048 277.077 747.968 287.205 753.5 295.965L755.132 298.549Z" fill="black" fill-opacity="0.2"/>
<path d="M795.773 211.873L794.957 211.937V321.401L795.773 321.461C797.173 321.569 798.593 321.621 800.001 321.621V211.713C798.585 211.713 797.169 211.769 795.773 211.873Z" fill="black" fill-opacity="0.2"/>
<path d="M770.409 312.982L771.769 313.854V219.482L770.409 220.354C767.393 222.286 764.549 224.526 761.957 227.014L761.685 227.274V306.062L761.957 306.322C764.549 308.81 767.393 311.05 770.409 312.982Z" fill="black" fill-opacity="0.2"/>
<path d="M787.32 320.148L788.404 320.404V212.928L787.32 213.184C784.44 213.864 781.596 214.788 778.864 215.924L778.32 216.152V317.18L778.864 317.408C781.592 318.544 784.44 319.468 787.32 320.148Z" fill="black" fill-opacity="0.2"/>
<path d="M50.7416 154.47C51.8808 151.742 52.8032 148.894 53.4832 146.018L53.74 144.93H0V155.014H50.5152L50.7416 154.47Z" fill="black" fill-opacity="0.2"/>
<path d="M29.3005 86.8368C20.5403 81.3048 10.4088 78.3808 0.00125 78.3808C0.000781252 78.3808 0.000468752 78.3808 0.000468752 78.3808L0 88.4688H31.8828L29.3005 86.8368Z" fill="black" fill-opacity="0.2"/>
<path d="M54.7948 137.561C55.0072 134.765 55.0072 131.901 54.7948 129.109L54.7328 128.293H0V138.377H54.7328L54.7948 137.561Z" fill="black" fill-opacity="0.2"/>
<path d="M46.3152 103.745C44.3832 100.725 42.1424 97.8815 39.6547 95.2895L39.3939 95.0175H0V105.105H47.186L46.3152 103.745Z" fill="black" fill-opacity="0.2"/>
<path d="M53.4832 120.652C52.8032 117.776 51.8808 114.928 50.7416 112.196L50.5152 111.656H0V121.74H53.74L53.4832 120.652Z" fill="black" fill-opacity="0.2"/>
<path d="M29.3005 179.833L31.8828 178.201H0V188.289C0 188.289 0.000781252 188.289 0.00125 188.289C10.4088 188.289 20.5403 185.365 29.3005 179.833Z" fill="black" fill-opacity="0.2"/>
<path d="M39.6547 171.38C42.1424 168.784 44.3832 165.944 46.3152 162.924L47.186 161.564H0V171.648H39.3939L39.6547 171.38Z" fill="black" fill-opacity="0.2"/>
<path d="M746.516 146.018C747.196 148.898 748.12 151.742 749.26 154.47L749.484 155.014H800V144.93H746.26L746.516 146.018Z" fill="black" fill-opacity="0.2"/>
<path d="M770.7 86.8368L768.116 88.4688H800V78.3808C789.592 78.3808 779.46 81.3048 770.7 86.8368Z" fill="black" fill-opacity="0.2"/>
<path d="M745.204 129.109C745.1 130.505 745.044 131.929 745.044 133.333C745.044 134.741 745.1 136.165 745.204 137.561L745.268 138.377H800V128.293H745.268L745.204 129.109Z" fill="black" fill-opacity="0.2"/>
<path d="M760.348 95.2895C757.86 97.8815 755.616 100.725 753.684 103.745L752.816 105.105H800V95.0175H760.608L760.348 95.2895Z" fill="black" fill-opacity="0.2"/>
<path d="M749.26 112.196C748.12 114.928 747.196 117.772 746.516 120.652L746.26 121.74H800V111.656H749.484L749.26 112.196Z" fill="black" fill-opacity="0.2"/>
<path d="M770.7 179.833C779.46 185.365 789.592 188.289 800 188.289V178.201H768.116L770.7 179.833Z" fill="black" fill-opacity="0.2"/>
<path d="M753.684 162.924C755.616 165.944 757.86 168.788 760.348 171.38L760.608 171.648H800V161.564H752.816L753.684 162.924Z" fill="black" fill-opacity="0.2"/>
<path d="M155.013 183.848V82.8203L154.469 82.5923C151.738 81.4523 148.893 80.5323 146.015 79.8523L144.928 79.5963V187.072L146.015 186.816C148.895 186.136 151.739 185.212 154.47 184.076L155.013 183.848Z" fill="black" fill-opacity="0.2"/>
<path d="M88.4665 165.217V101.453L86.8357 104.033C81.3045 112.797 78.3809 122.925 78.3809 133.333C78.3809 143.741 81.3045 153.873 86.8357 162.633L88.4665 165.217Z" fill="black" fill-opacity="0.2"/>
<path d="M137.56 188.129L138.377 188.065V78.605L137.56 78.5411C134.766 78.3291 131.901 78.3291 129.107 78.5411L128.291 78.605V188.065L129.107 188.129C130.505 188.233 131.927 188.289 133.334 188.289C134.741 188.289 136.162 188.233 137.56 188.129Z" fill="black" fill-opacity="0.2"/>
<path d="M95.0176 93.9415V172.725L95.2892 172.989C97.8812 175.477 100.725 177.717 103.743 179.649L105.103 180.521V86.1495L103.743 87.0215C100.726 88.9535 97.882 91.1935 95.2892 93.6815L95.0176 93.9415Z" fill="black" fill-opacity="0.2"/>
<path d="M121.74 187.072V79.5963L120.653 79.8523C117.775 80.5323 114.93 81.4523 112.198 82.5923L111.654 82.8203V183.848L112.197 184.076C114.928 185.212 117.773 186.136 120.653 186.816L121.74 187.072Z" fill="black" fill-opacity="0.2"/>
<path d="M178.201 101.453V165.217L179.832 162.633C185.363 153.873 188.287 143.741 188.287 133.333C188.287 122.925 185.363 112.797 179.832 104.033L178.201 101.453Z" fill="black" fill-opacity="0.2"/>
<path d="M171.65 172.725V93.9415L171.378 93.6815C168.786 91.1935 165.942 88.9535 162.924 87.0215L161.564 86.1495V180.521L162.924 179.649C165.942 177.717 168.786 175.477 171.378 172.989L171.65 172.725Z" fill="black" fill-opacity="0.2"/>
<path d="M317.408 154.47C318.548 151.742 319.47 148.894 320.15 146.018L320.406 144.93H212.929L213.186 146.018C213.866 148.898 214.788 151.742 215.927 154.47L216.154 155.014H317.182L317.408 154.47Z" fill="black" fill-opacity="0.2"/>
<path d="M295.967 86.8368C287.207 81.3048 277.075 78.3808 266.668 78.3808C256.26 78.3808 246.129 81.3048 237.369 86.8368L234.786 88.4688H298.55L295.967 86.8368Z" fill="black" fill-opacity="0.2"/>
<path d="M211.936 138.377H321.399L321.461 137.561C321.673 134.765 321.673 131.901 321.461 129.109L321.399 128.293H211.936L211.874 129.109C211.768 130.505 211.714 131.929 211.714 133.333C211.714 134.741 211.768 136.165 211.874 137.561L211.936 138.377Z" fill="black" fill-opacity="0.2"/>
<path d="M312.982 103.745C311.05 100.725 308.808 97.8815 306.321 95.2895L306.06 95.0175H227.275L227.014 95.2895C224.526 97.8815 222.286 100.725 220.353 103.745L219.482 105.105H313.852L312.982 103.745Z" fill="black" fill-opacity="0.2"/>
<path d="M320.15 120.652C319.47 117.776 318.548 114.928 317.408 112.196L317.182 111.656H216.154L215.927 112.196C214.788 114.928 213.866 117.772 213.186 120.652L212.929 121.74H320.406L320.15 120.652Z" fill="black" fill-opacity="0.2"/>
<path d="M237.369 179.833C246.129 185.365 256.26 188.289 266.668 188.289C277.075 188.289 287.207 185.365 295.967 179.833L298.55 178.201H234.786L237.369 179.833Z" fill="black" fill-opacity="0.2"/>
<path d="M313.852 161.564H219.482L220.353 162.924C222.286 165.944 224.526 168.788 227.014 171.38L227.275 171.648H306.06L306.321 171.38C308.808 168.784 311.05 165.944 312.982 162.924L313.852 161.564Z" fill="black" fill-opacity="0.2"/>
<path d="M411.596 79.5963V187.072L412.68 186.816C415.56 186.136 418.404 185.212 421.136 184.076L421.68 183.848V82.8203L421.136 82.5923C418.404 81.4523 415.56 80.5323 412.68 79.8523L411.596 79.5963Z" fill="black" fill-opacity="0.2"/>
<path d="M355.132 165.217V101.453L353.502 104.033C347.97 112.797 345.047 122.925 345.047 133.333C345.047 143.741 347.97 153.873 353.502 162.633L355.132 165.217Z" fill="black" fill-opacity="0.2"/>
<path d="M395.773 78.5411L394.957 78.605V188.065L395.773 188.129C397.171 188.233 398.593 188.289 400 188.289C401.408 188.289 402.828 188.233 404.228 188.129L405.044 188.065V78.605L404.228 78.5411C401.432 78.3291 398.567 78.3291 395.773 78.5411Z" fill="black" fill-opacity="0.2"/>
<path d="M361.684 93.9415V172.725L361.956 172.989C364.547 175.477 367.392 177.717 370.409 179.649L371.769 180.521V86.1495L370.409 87.0215C367.392 88.9535 364.548 91.1935 361.956 93.6815L361.684 93.9415Z" fill="black" fill-opacity="0.2"/>
<path d="M378.32 82.8203V183.848L378.864 184.076C381.594 185.212 384.439 186.136 387.319 186.816L388.406 187.072V79.5963L387.32 79.8523C384.441 80.5323 381.596 81.4523 378.864 82.5923L378.32 82.8203Z" fill="black" fill-opacity="0.2"/>
<path d="M444.868 101.453V165.217L446.5 162.633C452.028 153.873 454.952 143.741 454.952 133.333C454.952 122.925 452.028 112.797 446.5 104.033L444.868 101.453Z" fill="black" fill-opacity="0.2"/>
<path d="M438.315 172.725V93.9415L438.043 93.6815C435.451 91.1935 432.607 88.9535 429.591 87.0215L428.231 86.1495V180.521L429.591 179.649C432.607 177.717 435.451 175.477 438.043 172.989L438.315 172.725Z" fill="black" fill-opacity="0.2"/>
<path d="M584.072 154.47C585.212 151.742 586.136 148.894 586.816 146.018L587.072 144.93H479.596L479.852 146.018C480.532 148.898 481.452 151.742 482.592 154.47L482.82 155.014H583.848L584.072 154.47Z" fill="black" fill-opacity="0.2"/>
<path d="M562.632 86.8368C553.872 81.3048 543.74 78.3808 533.332 78.3808C522.924 78.3808 512.796 81.3048 504.032 86.8368L501.452 88.4688H565.216L562.632 86.8368Z" fill="black" fill-opacity="0.2"/>
<path d="M588.064 128.293H478.6L478.54 129.109C478.432 130.505 478.38 131.929 478.38 133.333C478.38 134.741 478.432 136.165 478.54 137.561L478.6 138.377H588.064L588.128 137.561C588.34 134.765 588.34 131.901 588.128 129.109L588.064 128.293Z" fill="black" fill-opacity="0.2"/>
<path d="M579.648 103.745C577.716 100.725 575.476 97.8815 572.988 95.2895L572.728 95.0175H493.94L493.68 95.2895C491.192 97.8815 488.952 100.725 487.02 103.745L486.148 105.105H580.52L579.648 103.745Z" fill="black" fill-opacity="0.2"/>
<path d="M586.816 120.652C586.136 117.776 585.212 114.928 584.072 112.196L583.848 111.656H482.82L482.592 112.196C481.452 114.928 480.532 117.772 479.852 120.652L479.596 121.74H587.072L586.816 120.652Z" fill="black" fill-opacity="0.2"/>
<path d="M504.032 179.833C512.796 185.365 522.924 188.289 533.332 188.289C543.74 188.289 553.872 185.365 562.632 179.833L565.216 178.201H501.452L504.032 179.833Z" fill="black" fill-opacity="0.2"/>
<path d="M580.52 161.564H486.148L487.02 162.924C488.952 165.944 491.192 168.788 493.68 171.38L493.94 171.648H572.728L572.988 171.38C575.476 168.784 577.716 165.944 579.648 162.924L580.52 161.564Z" fill="black" fill-opacity="0.2"/>
<path d="M678.26 79.5963V187.072L679.348 186.816C682.228 186.136 685.072 185.212 687.804 184.076L688.344 183.848V82.8203L687.8 82.5923C685.072 81.4523 682.224 80.5323 679.348 79.8523L678.26 79.5963Z" fill="black" fill-opacity="0.2"/>
<path d="M621.8 165.217V101.453L620.168 104.033C614.636 112.797 611.712 122.925 611.712 133.333C611.712 143.741 614.636 153.873 620.168 162.633L621.8 165.217Z" fill="black" fill-opacity="0.2"/>
<path d="M662.44 78.5411L661.624 78.605V188.065L662.44 188.129C663.836 188.233 665.26 188.289 666.668 188.289C668.072 188.289 669.496 188.233 670.892 188.129L671.708 188.065V78.605L670.892 78.5411C668.1 78.3291 665.232 78.3291 662.44 78.5411Z" fill="black" fill-opacity="0.2"/>
<path d="M628.352 93.9415V172.725L628.62 172.989C631.212 175.477 634.056 177.717 637.076 179.649L638.436 180.521V86.1495L637.076 87.0215C634.056 88.9535 631.212 91.1935 628.62 93.6815L628.352 93.9415Z" fill="black" fill-opacity="0.2"/>
<path d="M644.988 82.8203V183.848L645.528 184.076C648.26 185.212 651.104 186.136 653.984 186.816L655.072 187.072V79.5963L653.984 79.8523C651.108 80.5323 648.264 81.4523 645.532 82.5923L644.988 82.8203Z" fill="black" fill-opacity="0.2"/>
<path d="M711.532 101.453V165.217L713.164 162.633C718.696 153.873 721.62 143.741 721.62 133.333C721.62 122.925 718.696 112.797 713.164 104.033L711.532 101.453Z" fill="black" fill-opacity="0.2"/>
<path d="M704.984 172.725V93.9415L704.712 93.6815C702.116 91.1935 699.276 88.9535 696.256 87.0215L694.896 86.1495V180.521L696.256 179.649C699.276 177.717 702.12 175.477 704.712 172.989L704.984 172.725Z" fill="black" fill-opacity="0.2"/>
<path d="M50.7416 421.137C51.8808 418.405 52.8032 415.561 53.4832 412.681L53.74 411.597H0V421.681H50.5152L50.7416 421.137Z" fill="black" fill-opacity="0.2"/>
<path d="M29.3005 353.501C20.5403 347.973 10.4088 345.049 0.00125 345.049C0.000781252 345.049 0.000468752 345.049 0.000468752 345.049L0 355.133H31.8828L29.3005 353.501Z" fill="black" fill-opacity="0.2"/>
<path d="M54.7948 404.228C55.0072 401.432 55.0072 398.568 54.7948 395.772L54.7328 394.956H0V405.044H54.7328L54.7948 404.228Z" fill="black" fill-opacity="0.2"/>
<path d="M46.3152 370.41C44.3832 367.394 42.1424 364.55 39.6547 361.958L39.3939 361.686H0V371.77H47.186L46.3152 370.41Z" fill="black" fill-opacity="0.2"/>
<path d="M53.4832 387.32C52.8032 384.44 51.8808 381.596 50.7416 378.864L50.5152 378.32H0V388.404H53.74L53.4832 387.32Z" fill="black" fill-opacity="0.2"/>
<path d="M29.3005 446.5L31.8828 444.868H0V454.952C0 454.952 0.000781252 454.952 0.00125 454.952C10.4088 454.952 20.5403 452.028 29.3005 446.5Z" fill="black" fill-opacity="0.2"/>
<path d="M39.6547 438.044C42.1424 435.452 44.3832 432.608 46.3152 429.592L47.186 428.232H0V438.316H39.3939L39.6547 438.044Z" fill="black" fill-opacity="0.2"/>
<path d="M746.516 412.681C747.196 415.561 748.12 418.405 749.26 421.137L749.484 421.681H800V411.597H746.26L746.516 412.681Z" fill="black" fill-opacity="0.2"/>
<path d="M770.7 353.501L768.116 355.133H800V345.049C789.592 345.049 779.46 347.973 770.7 353.501Z" fill="black" fill-opacity="0.2"/>
<path d="M745.204 395.772C745.1 397.172 745.044 398.592 745.044 400C745.044 401.408 745.1 402.828 745.204 404.228L745.268 405.044H800V394.956H745.268L745.204 395.772Z" fill="black" fill-opacity="0.2"/>
<path d="M760.348 361.958C757.86 364.55 755.616 367.394 753.684 370.41L752.816 371.77H800V361.686H760.608L760.348 361.958Z" fill="black" fill-opacity="0.2"/>
<path d="M749.26 378.864C748.12 381.596 747.196 384.44 746.516 387.32L746.26 388.404H800V378.32H749.484L749.26 378.864Z" fill="black" fill-opacity="0.2"/>
<path d="M770.7 446.5C779.46 452.028 789.592 454.952 800 454.952V444.868H768.116L770.7 446.5Z" fill="black" fill-opacity="0.2"/>
<path d="M753.684 429.592C755.616 432.608 757.86 435.452 760.348 438.044L760.608 438.316H800V428.232H752.816L753.684 429.592Z" fill="black" fill-opacity="0.2"/>
<path d="M155.013 450.512V349.484L154.469 349.26C151.738 348.12 148.893 347.196 146.015 346.516L144.928 346.26V453.74L146.015 453.48C148.895 452.8 151.739 451.88 154.47 450.74L155.013 450.512Z" fill="black" fill-opacity="0.2"/>
<path d="M88.4665 431.88V368.116L86.8357 370.7C81.3045 379.46 78.3809 389.592 78.3809 400C78.3809 410.408 81.3045 420.54 86.8357 429.3L88.4665 431.88Z" fill="black" fill-opacity="0.2"/>
<path d="M137.56 454.792L138.377 454.732V345.268L137.56 345.204C134.766 344.992 131.901 344.992 129.107 345.204L128.291 345.268V454.732L129.107 454.792C130.505 454.9 131.927 454.952 133.334 454.952C134.741 454.952 136.162 454.9 137.56 454.792Z" fill="black" fill-opacity="0.2"/>
<path d="M95.0176 360.609V439.393L95.2892 439.653C97.8812 442.141 100.725 444.381 103.743 446.313L105.103 447.185V352.817L103.743 353.685C100.726 355.617 97.882 357.861 95.2892 360.345L95.0176 360.609Z" fill="black" fill-opacity="0.2"/>
<path d="M121.74 453.74V346.26L120.653 346.516C117.775 347.196 114.93 348.12 112.198 349.26L111.654 349.484V450.512L112.197 450.74C114.928 451.88 117.773 452.8 120.653 453.48L121.74 453.74Z" fill="black" fill-opacity="0.2"/>
<path d="M178.201 368.116V431.88L179.832 429.3C185.363 420.54 188.287 410.408 188.287 400C188.287 389.592 185.363 379.46 179.832 370.7L178.201 368.116Z" fill="black" fill-opacity="0.2"/>
<path d="M171.65 439.393V360.609L171.378 360.345C168.786 357.861 165.942 355.617 162.924 353.685L161.564 352.817V447.185L162.924 446.313C165.942 444.381 168.786 442.141 171.378 439.653L171.65 439.393Z" fill="black" fill-opacity="0.2"/>
<path d="M317.408 421.137C318.548 418.405 319.47 415.561 320.15 412.681L320.406 411.597H212.929L213.186 412.681C213.866 415.561 214.788 418.405 215.927 421.137L216.154 421.681H317.182L317.408 421.137Z" fill="black" fill-opacity="0.2"/>
<path d="M234.786 355.133H298.55L295.967 353.501C287.207 347.973 277.075 345.049 266.668 345.049C256.26 345.049 246.129 347.973 237.369 353.501L234.786 355.133Z" fill="black" fill-opacity="0.2"/>
<path d="M321.461 404.228C321.673 401.432 321.673 398.568 321.461 395.772L321.399 394.956H211.936L211.874 395.772C211.768 397.172 211.714 398.592 211.714 400C211.714 401.408 211.768 402.828 211.874 404.228L211.936 405.044H321.399L321.461 404.228Z" fill="black" fill-opacity="0.2"/>
<path d="M306.321 361.958L306.06 361.686H227.275L227.014 361.958C224.526 364.55 222.286 367.394 220.353 370.41L219.482 371.77H313.852L312.982 370.41C311.05 367.394 308.808 364.55 306.321 361.958Z" fill="black" fill-opacity="0.2"/>
<path d="M317.408 378.864L317.182 378.32H216.154L215.927 378.864C214.788 381.596 213.866 384.44 213.186 387.32L212.929 388.404H320.406L320.15 387.32C319.47 384.44 318.548 381.596 317.408 378.864Z" fill="black" fill-opacity="0.2"/>
<path d="M237.369 446.5C246.129 452.028 256.26 454.952 266.668 454.952C277.075 454.952 287.207 452.028 295.967 446.5L298.55 444.868H234.786L237.369 446.5Z" fill="black" fill-opacity="0.2"/>
<path d="M313.852 428.232H219.482L220.353 429.592C222.286 432.608 224.526 435.452 227.014 438.044L227.275 438.316H306.06L306.321 438.044C308.808 435.452 311.05 432.608 312.982 429.592L313.852 428.232Z" fill="black" fill-opacity="0.2"/>
<path d="M411.596 346.26V453.74L412.68 453.48C415.56 452.8 418.404 451.88 421.136 450.74L421.68 450.512V349.484L421.136 349.26C418.404 348.12 415.56 347.196 412.68 346.516L411.596 346.26Z" fill="black" fill-opacity="0.2"/>
<path d="M353.502 429.3L355.132 431.88V368.116L353.502 370.7C347.97 379.46 345.047 389.592 345.047 400C345.047 410.408 347.97 420.54 353.502 429.3Z" fill="black" fill-opacity="0.2"/>
<path d="M395.773 345.204L394.957 345.268V454.732L395.773 454.792C397.171 454.9 398.593 454.952 400 454.952C401.408 454.952 402.828 454.9 404.228 454.792L405.044 454.732V345.268L404.228 345.204C401.432 344.992 398.567 344.992 395.773 345.204Z" fill="black" fill-opacity="0.2"/>
<path d="M361.684 360.609V439.393L361.956 439.653C364.547 442.141 367.392 444.381 370.409 446.313L371.769 447.185V352.817L370.409 353.685C367.392 355.617 364.548 357.861 361.956 360.345L361.684 360.609Z" fill="black" fill-opacity="0.2"/>
<path d="M378.32 349.484V450.512L378.864 450.74C381.594 451.88 384.439 452.8 387.319 453.48L388.406 453.74V346.26L387.32 346.516C384.441 347.196 381.596 348.12 378.864 349.26L378.32 349.484Z" fill="black" fill-opacity="0.2"/>
<path d="M446.5 370.7L444.868 368.116V431.88L446.5 429.3C452.028 420.54 454.952 410.408 454.952 400C454.952 389.592 452.028 379.46 446.5 370.7Z" fill="black" fill-opacity="0.2"/>
<path d="M438.315 439.393V360.609L438.043 360.345C435.451 357.861 432.607 355.617 429.591 353.685L428.231 352.817V447.185L429.591 446.313C432.607 444.381 435.451 442.141 438.043 439.653L438.315 439.393Z" fill="black" fill-opacity="0.2"/>
<path d="M584.072 421.137C585.212 418.405 586.136 415.561 586.816 412.681L587.072 411.597H479.596L479.852 412.681C480.532 415.561 481.452 418.405 482.592 421.137L482.82 421.681H583.848L584.072 421.137Z" fill="black" fill-opacity="0.2"/>
<path d="M501.452 355.133H565.216L562.632 353.501C553.872 347.973 543.74 345.049 533.332 345.049C522.924 345.049 512.796 347.973 504.032 353.501L501.452 355.133Z" fill="black" fill-opacity="0.2"/>
<path d="M588.064 394.956H478.6L478.54 395.772C478.432 397.172 478.38 398.592 478.38 400C478.38 401.408 478.432 402.828 478.54 404.228L478.6 405.044H588.064L588.128 404.228C588.34 401.432 588.34 398.568 588.128 395.772L588.064 394.956Z" fill="black" fill-opacity="0.2"/>
<path d="M572.988 361.958L572.728 361.686H493.94L493.68 361.958C491.192 364.55 488.952 367.394 487.02 370.41L486.148 371.77H580.52L579.648 370.41C577.716 367.394 575.476 364.55 572.988 361.958Z" fill="black" fill-opacity="0.2"/>
<path d="M482.592 378.864C481.452 381.596 480.532 384.44 479.852 387.32L479.596 388.404H587.072L586.816 387.32C586.136 384.44 585.212 381.596 584.072 378.864L583.848 378.32H482.82L482.592 378.864Z" fill="black" fill-opacity="0.2"/>
<path d="M504.032 446.5C512.796 452.028 522.924 454.952 533.332 454.952C543.74 454.952 553.872 452.028 562.632 446.5L565.216 444.868H501.452L504.032 446.5Z" fill="black" fill-opacity="0.2"/>
<path d="M580.52 428.232H486.148L487.02 429.592C488.952 432.608 491.192 435.452 493.68 438.044L493.94 438.316H572.728L572.988 438.044C575.476 435.452 577.716 432.608 579.648 429.592L580.52 428.232Z" fill="black" fill-opacity="0.2"/>
<path d="M678.26 346.26V453.74L679.348 453.48C682.228 452.8 685.072 451.88 687.804 450.74L688.344 450.512V349.484L687.8 349.26C685.072 348.12 682.224 347.196 679.348 346.516L678.26 346.26Z" fill="black" fill-opacity="0.2"/>
<path d="M620.168 429.3L621.8 431.88V368.116L620.168 370.7C614.636 379.46 611.712 389.592 611.712 400C611.712 410.408 614.636 420.54 620.168 429.3Z" fill="black" fill-opacity="0.2"/>
<path d="M662.44 345.204L661.624 345.268V454.732L662.44 454.792C663.836 454.9 665.26 454.952 666.668 454.952C668.072 454.952 669.496 454.9 670.892 454.792L671.708 454.732V345.268L670.892 345.204C668.1 344.992 665.232 344.992 662.44 345.204Z" fill="black" fill-opacity="0.2"/>
<path d="M628.352 360.609V439.393L628.62 439.653C631.212 442.141 634.056 444.381 637.076 446.313L638.436 447.185V352.817L637.076 353.685C634.056 355.617 631.212 357.861 628.62 360.345L628.352 360.609Z" fill="black" fill-opacity="0.2"/>
<path d="M644.988 349.484V450.512L645.528 450.74C648.26 451.88 651.104 452.8 653.984 453.48L655.072 453.74V346.26L653.984 346.516C651.108 347.196 648.264 348.12 645.532 349.26L644.988 349.484Z" fill="black" fill-opacity="0.2"/>
<path d="M713.164 370.7L711.532 368.116V431.88L713.164 429.3C718.696 420.54 721.62 410.408 721.62 400C721.62 389.592 718.696 379.46 713.164 370.7Z" fill="black" fill-opacity="0.2"/>
<path d="M704.984 439.393V360.609L704.712 360.345C702.116 357.861 699.276 355.617 696.256 353.685L694.896 352.817V447.185L696.256 446.313C699.276 444.381 702.12 442.141 704.712 439.653L704.984 439.393Z" fill="black" fill-opacity="0.2"/>
<path d="M50.7416 687.8C51.8808 685.072 52.8032 682.224 53.4832 679.348L53.74 678.26H0V688.344H50.5152L50.7416 687.8Z" fill="black" fill-opacity="0.2"/>
<path d="M29.3005 620.168C20.5403 614.636 10.4088 611.712 0.00125 611.712C0.000781252 611.712 0.000468752 611.712 0.000468752 611.712L0 621.8H31.8828L29.3005 620.168Z" fill="black" fill-opacity="0.2"/>
<path d="M54.7948 670.892C55.0072 668.1 55.0072 665.232 54.7948 662.44L54.7328 661.624H0V671.708H54.7328L54.7948 670.892Z" fill="black" fill-opacity="0.2"/>
<path d="M46.3152 637.077C44.3832 634.061 42.1424 631.217 39.6547 628.621L39.3939 628.353H0V638.437H47.186L46.3152 637.077Z" fill="black" fill-opacity="0.2"/>
<path d="M53.4832 653.984C52.8032 651.108 51.8808 648.264 50.7416 645.532L50.5152 644.988H0V655.072H53.74L53.4832 653.984Z" fill="black" fill-opacity="0.2"/>
<path d="M29.3005 713.164L31.8828 711.532H0V721.62C0 721.62 0.000781252 721.62 0.00125 721.62C10.4088 721.62 20.5403 718.696 29.3005 713.164Z" fill="black" fill-opacity="0.2"/>
<path d="M39.6547 704.712C42.1424 702.12 44.3832 699.276 46.3152 696.256L47.186 694.896H0V704.984H39.3939L39.6547 704.712Z" fill="black" fill-opacity="0.2"/>
<path d="M746.516 679.348C747.196 682.228 748.12 685.072 749.26 687.804L749.484 688.344H800V678.26H746.26L746.516 679.348Z" fill="black" fill-opacity="0.2"/>
<path d="M770.7 620.168L768.116 621.8H800V611.712C789.592 611.712 779.46 614.636 770.7 620.168Z" fill="black" fill-opacity="0.2"/>
<path d="M745.204 662.44C745.1 663.836 745.044 665.26 745.044 666.668C745.044 668.072 745.1 669.496 745.204 670.892L745.268 671.708H800V661.624H745.268L745.204 662.44Z" fill="black" fill-opacity="0.2"/>
<path d="M760.348 628.621C757.86 631.213 755.616 634.057 753.684 637.077L752.816 638.437H800V628.353H760.608L760.348 628.621Z" fill="black" fill-opacity="0.2"/>
<path d="M749.26 645.528C748.12 648.26 747.196 651.104 746.516 653.984L746.26 655.072H800V644.988H749.484L749.26 645.528Z" fill="black" fill-opacity="0.2"/>
<path d="M770.7 713.164C779.46 718.696 789.592 721.62 800 721.62V711.532H768.116L770.7 713.164Z" fill="black" fill-opacity="0.2"/>
<path d="M752.816 694.896L753.684 696.256C755.616 699.276 757.86 702.12 760.348 704.712L760.608 704.984H800V694.896H752.816Z" fill="black" fill-opacity="0.2"/>
<path d="M155.013 717.18V616.152L154.469 615.924C151.738 614.784 148.893 613.864 146.015 613.184L144.928 612.928V720.404L146.015 720.148C148.895 719.468 151.739 718.544 154.47 717.408L155.013 717.18Z" fill="black" fill-opacity="0.2"/>
<path d="M88.4665 698.548V634.784L86.8357 637.368C81.3045 646.128 78.3809 656.26 78.3809 666.664C78.3809 677.072 81.3045 687.204 86.8357 695.964L88.4665 698.548Z" fill="black" fill-opacity="0.2"/>
<path d="M137.56 721.46L138.377 721.396V611.936L137.56 611.872C134.766 611.66 131.901 611.66 129.107 611.872L128.291 611.936V721.396L129.107 721.46C130.505 721.564 131.927 721.62 133.334 721.62C134.741 721.62 136.162 721.564 137.56 721.46Z" fill="black" fill-opacity="0.2"/>
<path d="M95.0176 627.272V706.06L95.2892 706.32C97.8812 708.808 100.725 711.048 103.743 712.98L105.103 713.852V619.48L103.743 620.352C100.726 622.284 97.882 624.524 95.2892 627.012L95.0176 627.272Z" fill="black" fill-opacity="0.2"/>
<path d="M121.74 720.404V612.928L120.653 613.184C117.775 613.864 114.93 614.784 112.198 615.924L111.654 616.152V717.18L112.197 717.408C114.928 718.544 117.773 719.468 120.653 720.148L121.74 720.404Z" fill="black" fill-opacity="0.2"/>
<path d="M178.201 634.784V698.548L179.832 695.964C185.363 687.204 188.287 677.072 188.287 666.664C188.287 656.26 185.363 646.128 179.832 637.368L178.201 634.784Z" fill="black" fill-opacity="0.2"/>
<path d="M171.65 706.06V627.272L171.378 627.012C168.786 624.524 165.942 622.284 162.924 620.352L161.564 619.48V713.852L162.924 712.98C165.942 711.048 168.786 708.808 171.378 706.32L171.65 706.06Z" fill="black" fill-opacity="0.2"/>
<path d="M213.186 679.348C213.866 682.228 214.788 685.072 215.927 687.804L216.154 688.344H317.182L317.408 687.8C318.548 685.072 319.47 682.224 320.15 679.348L320.406 678.26H212.929L213.186 679.348Z" fill="black" fill-opacity="0.2"/>
<path d="M234.786 621.8H298.55L295.967 620.168C287.207 614.636 277.075 611.712 266.668 611.712C256.26 611.712 246.129 614.636 237.369 620.168L234.786 621.8Z" fill="black" fill-opacity="0.2"/>
<path d="M321.399 661.624H211.936L211.874 662.44C211.768 663.836 211.714 665.26 211.714 666.668C211.714 668.072 211.768 669.496 211.874 670.892L211.936 671.708H321.399L321.461 670.892C321.673 668.1 321.673 665.232 321.461 662.44L321.399 661.624Z" fill="black" fill-opacity="0.2"/>
<path d="M306.321 628.621L306.06 628.353H227.275L227.014 628.621C224.526 631.213 222.286 634.057 220.353 637.077L219.482 638.437H313.852L312.982 637.077C311.05 634.061 308.808 631.217 306.321 628.621Z" fill="black" fill-opacity="0.2"/>
<path d="M215.927 645.528C214.788 648.26 213.866 651.104 213.186 653.984L212.929 655.072H320.406L320.15 653.984C319.47 651.108 318.548 648.264 317.408 645.532L317.182 644.988H216.154L215.927 645.528Z" fill="black" fill-opacity="0.2"/>
<path d="M237.369 713.164C246.129 718.696 256.26 721.62 266.668 721.62C277.075 721.62 287.207 718.696 295.967 713.164L298.55 711.532H234.786L237.369 713.164Z" fill="black" fill-opacity="0.2"/>
<path d="M220.353 696.256C222.286 699.276 224.526 702.12 227.014 704.712L227.275 704.984H306.06L306.321 704.712C308.808 702.12 311.05 699.276 312.982 696.256L313.852 694.896H219.482L220.353 696.256Z" fill="black" fill-opacity="0.2"/>
<path d="M421.68 717.18V616.152L421.136 615.924C418.404 614.784 415.56 613.864 412.68 613.184L411.596 612.928V720.404L412.68 720.148C415.56 719.468 418.404 718.544 421.136 717.408L421.68 717.18Z" fill="black" fill-opacity="0.2"/>
<path d="M355.132 698.548V634.784L353.502 637.368C347.97 646.128 345.047 656.26 345.047 666.664C345.047 677.072 347.97 687.204 353.502 695.964L355.132 698.548Z" fill="black" fill-opacity="0.2"/>
<path d="M404.228 721.46L405.044 721.396V611.936L404.228 611.872C401.432 611.66 398.567 611.66 395.773 611.872L394.957 611.936V721.396L395.773 721.46C397.171 721.564 398.593 721.62 400 721.62C401.408 721.62 402.828 721.564 404.228 721.46Z" fill="black" fill-opacity="0.2"/>
<path d="M361.684 627.272V706.06L361.956 706.32C364.547 708.808 367.392 711.048 370.409 712.98L371.769 713.852V619.48L370.409 620.352C367.392 622.284 364.548 624.524 361.956 627.012L361.684 627.272Z" fill="black" fill-opacity="0.2"/>
<path d="M388.406 720.404V612.928L387.32 613.184C384.441 613.864 381.596 614.784 378.864 615.924L378.32 616.152V717.18L378.864 717.408C381.594 718.544 384.439 719.468 387.319 720.148L388.406 720.404Z" fill="black" fill-opacity="0.2"/>
<path d="M444.868 634.784V698.548L446.5 695.964C452.028 687.204 454.952 677.072 454.952 666.664C454.952 656.26 452.028 646.128 446.5 637.368L444.868 634.784Z" fill="black" fill-opacity="0.2"/>
<path d="M438.315 706.06V627.272L438.043 627.012C435.451 624.524 432.607 622.284 429.591 620.352L428.231 619.48V713.852L429.591 712.98C432.607 711.048 435.451 708.808 438.043 706.32L438.315 706.06Z" fill="black" fill-opacity="0.2"/>
<path d="M479.852 679.348C480.532 682.228 481.452 685.072 482.592 687.804L482.82 688.344H583.848L584.072 687.8C585.212 685.072 586.136 682.224 586.816 679.348L587.072 678.26H479.596L479.852 679.348Z" fill="black" fill-opacity="0.2"/>
<path d="M501.452 621.8H565.216L562.632 620.168C553.872 614.636 543.74 611.712 533.332 611.712C522.924 611.712 512.796 614.636 504.032 620.168L501.452 621.8Z" fill="black" fill-opacity="0.2"/>
<path d="M588.064 661.624H478.6L478.54 662.44C478.432 663.836 478.38 665.26 478.38 666.668C478.38 668.072 478.432 669.496 478.54 670.892L478.6 671.708H588.064L588.128 670.892C588.34 668.1 588.34 665.232 588.128 662.44L588.064 661.624Z" fill="black" fill-opacity="0.2"/>
<path d="M572.988 628.621L572.728 628.353H493.94L493.68 628.621C491.192 631.213 488.952 634.057 487.02 637.077L486.148 638.437H580.52L579.648 637.077C577.716 634.061 575.476 631.217 572.988 628.621Z" fill="black" fill-opacity="0.2"/>
<path d="M482.592 645.528C481.452 648.26 480.532 651.104 479.852 653.984L479.596 655.072H587.072L586.816 653.984C586.136 651.108 585.212 648.264 584.072 645.532L583.848 644.988H482.82L482.592 645.528Z" fill="black" fill-opacity="0.2"/>
<path d="M504.032 713.164C512.796 718.696 522.924 721.62 533.332 721.62C543.74 721.62 553.872 718.696 562.632 713.164L565.216 711.532H501.452L504.032 713.164Z" fill="black" fill-opacity="0.2"/>
<path d="M487.02 696.256C488.952 699.276 491.192 702.12 493.68 704.712L493.94 704.984H572.728L572.988 704.712C575.476 702.12 577.716 699.276 579.648 696.256L580.52 694.896H486.148L487.02 696.256Z" fill="black" fill-opacity="0.2"/>
<path d="M688.344 717.18V616.152L687.8 615.924C685.072 614.784 682.224 613.864 679.348 613.184L678.26 612.928V720.404L679.348 720.148C682.228 719.468 685.072 718.544 687.804 717.408L688.344 717.18Z" fill="black" fill-opacity="0.2"/>
<path d="M621.8 698.548V634.784L620.168 637.368C614.636 646.128 611.712 656.26 611.712 666.664C611.712 677.072 614.636 687.204 620.168 695.964L621.8 698.548Z" fill="black" fill-opacity="0.2"/>
<path d="M670.892 721.46L671.708 721.396V611.936L670.892 611.872C668.1 611.66 665.232 611.66 662.44 611.872L661.624 611.936V721.396L662.44 721.46C663.836 721.564 665.26 721.62 666.668 721.62C668.072 721.62 669.496 721.564 670.892 721.46Z" fill="black" fill-opacity="0.2"/>
<path d="M628.352 627.272V706.06L628.62 706.32C631.212 708.808 634.056 711.048 637.076 712.98L638.436 713.852V619.48L637.076 620.352C634.056 622.284 631.212 624.524 628.62 627.012L628.352 627.272Z" fill="black" fill-opacity="0.2"/>
<path d="M655.072 720.404V612.928L653.984 613.184C651.108 613.864 648.264 614.784 645.532 615.924L644.988 616.152V717.18L645.528 717.408C648.26 718.544 651.104 719.468 653.984 720.148L655.072 720.404Z" fill="black" fill-opacity="0.2"/>
<path d="M711.532 634.784V698.548L713.164 695.964C718.696 687.204 721.62 677.072 721.62 666.664C721.62 656.26 718.696 646.128 713.164 637.368L711.532 634.784Z" fill="black" fill-opacity="0.2"/>
<path d="M704.984 706.06V627.272L704.712 627.012C702.116 624.524 699.276 622.284 696.256 620.352L694.896 619.48V713.852L696.256 712.98C699.276 711.048 702.12 708.808 704.712 706.32L704.984 706.06Z" fill="black" fill-opacity="0.2"/>
<path d="M12.6818 479.852L11.5947 479.596V587.072L12.6818 586.816C15.5621 586.136 18.4063 585.212 21.1371 584.072L21.6802 583.848V482.82L21.1366 482.592C18.4052 481.452 15.5605 480.532 12.6818 479.852Z" fill="black" fill-opacity="0.2"/>
<path d="M4.22704 588.128L5.0436 588.064V478.6L4.22704 478.54C2.82984 478.432 1.41484 478.38 0 478.38V588.288C0 588.288 0.000625 588.288 0.0009375 588.288C1.40781 588.288 2.82953 588.232 4.22704 588.128Z" fill="black" fill-opacity="0.2"/>
<path d="M44.8682 501.452V565.216L46.499 562.632C52.0302 553.872 54.9538 543.74 54.9538 533.332C54.9538 522.924 52.0302 512.792 46.499 504.032L44.8682 501.452Z" fill="black" fill-opacity="0.2"/>
<path d="M29.5913 487.021L28.2314 486.149V580.517L29.5913 579.649C32.6089 577.717 35.4533 575.473 38.045 572.989L38.3168 572.725V493.941L38.045 493.681C35.4527 491.193 32.6085 488.953 29.5913 487.021Z" fill="black" fill-opacity="0.2"/>
<path d="M184.074 554.469C185.214 551.737 186.136 548.893 186.816 546.017L187.072 544.929H79.5947L79.8515 546.017C80.5319 548.897 81.4543 551.741 82.5931 554.469L82.8199 555.013H183.848L184.074 554.469Z" fill="black" fill-opacity="0.2"/>
<path d="M101.452 488.464H165.216L162.633 486.836C153.873 481.304 143.741 478.38 133.334 478.38C122.926 478.38 112.795 481.304 104.035 486.836L101.452 488.464Z" fill="black" fill-opacity="0.2"/>
<path d="M78.6025 538.376H188.066L188.128 537.56C188.34 534.764 188.34 531.9 188.128 529.108L188.066 528.292H78.6025L78.5405 529.108C78.4345 530.504 78.3809 531.928 78.3809 533.332C78.3809 534.74 78.4345 536.16 78.5405 537.56L78.6025 538.376Z" fill="black" fill-opacity="0.2"/>
<path d="M172.988 495.288L172.727 495.016H93.9414L93.6806 495.288C91.193 497.88 88.9522 500.724 87.0198 503.744L86.1494 505.104H180.519L179.648 503.744C177.716 500.724 175.475 497.88 172.988 495.288Z" fill="black" fill-opacity="0.2"/>
<path d="M82.5931 512.196C81.4543 514.928 80.5319 517.772 79.8515 520.652L79.5947 521.74H187.072L186.816 520.652C186.136 517.772 185.214 514.928 184.074 512.196L183.848 511.652H82.8199L82.5931 512.196Z" fill="black" fill-opacity="0.2"/>
<path d="M104.035 579.832C112.795 585.364 122.926 588.288 133.334 588.288C143.741 588.288 153.873 585.364 162.633 579.832L165.216 578.2H101.452L104.035 579.832Z" fill="black" fill-opacity="0.2"/>
<path d="M180.519 561.564H86.1494L87.0198 562.924C88.9522 565.94 91.193 568.784 93.6806 571.376L93.9414 571.648H172.727L172.988 571.376C175.475 568.784 177.716 565.94 179.648 562.924L180.519 561.564Z" fill="black" fill-opacity="0.2"/>
<path d="M288.346 583.848V482.82L287.802 482.592C285.071 481.452 282.226 480.532 279.348 479.852L278.261 479.596V587.072L279.348 586.816C282.228 586.136 285.072 585.212 287.803 584.072L288.346 583.848Z" fill="black" fill-opacity="0.2"/>
<path d="M221.8 565.216V501.452L220.169 504.032C214.638 512.792 211.714 522.924 211.714 533.332C211.714 543.74 214.638 553.872 220.169 562.632L221.8 565.216Z" fill="black" fill-opacity="0.2"/>
<path d="M270.894 588.128L271.71 588.064V478.6L270.894 478.54C268.1 478.328 265.235 478.328 262.441 478.54L261.625 478.6V588.064L262.441 588.128C263.839 588.232 265.261 588.288 266.668 588.288C268.075 588.288 269.496 588.232 270.894 588.128Z" fill="black" fill-opacity="0.2"/>
<path d="M228.351 493.941V572.725L228.622 572.989C231.214 575.473 234.058 577.717 237.076 579.649L238.436 580.517V486.149L237.076 487.021C234.059 488.953 231.215 491.193 228.622 493.681L228.351 493.941Z" fill="black" fill-opacity="0.2"/>
<path d="M255.073 587.072V479.596L253.986 479.852C251.107 480.532 248.262 481.452 245.531 482.592L244.987 482.82V583.848L245.531 584.072C248.261 585.212 251.106 586.136 253.986 586.816L255.073 587.072Z" fill="black" fill-opacity="0.2"/>
<path d="M311.534 501.452V565.216L313.165 562.632C318.696 553.872 321.62 543.74 321.62 533.332C321.62 522.924 318.696 512.792 313.165 504.032L311.534 501.452Z" fill="black" fill-opacity="0.2"/>
<path d="M304.984 572.725V493.941L304.712 493.681C302.119 491.193 299.276 488.953 296.258 487.021L294.898 486.149V580.517L296.258 579.649C299.276 577.717 302.12 575.473 304.712 572.989L304.984 572.725Z" fill="black" fill-opacity="0.2"/>
<path d="M450.74 554.469C451.88 551.737 452.804 548.893 453.484 546.017L453.74 544.929H346.261L346.518 546.017C347.198 548.897 348.121 551.741 349.259 554.469L349.486 555.013H450.516L450.74 554.469Z" fill="black" fill-opacity="0.2"/>
<path d="M429.3 486.836C420.54 481.304 410.408 478.38 400 478.38C389.593 478.38 379.462 481.304 370.702 486.836L368.119 488.464H431.884L429.3 486.836Z" fill="black" fill-opacity="0.2"/>
<path d="M454.732 528.292H345.269L345.207 529.108C345.1 530.504 345.047 531.928 345.047 533.332C345.047 534.74 345.1 536.16 345.207 537.56L345.269 538.376H454.732L454.792 537.56C455.008 534.764 455.008 531.9 454.792 529.108L454.732 528.292Z" fill="black" fill-opacity="0.2"/>
<path d="M352.815 505.104H447.184L446.316 503.744C444.384 500.724 442.14 497.88 439.652 495.288L439.392 495.016H360.608L360.347 495.288C357.859 497.88 355.618 500.724 353.686 503.744L352.815 505.104Z" fill="black" fill-opacity="0.2"/>
<path d="M349.259 512.196C348.121 514.928 347.198 517.772 346.518 520.652L346.261 521.74H453.74L453.484 520.652C452.804 517.772 451.88 514.928 450.74 512.196L450.516 511.652H349.486L349.259 512.196Z" fill="black" fill-opacity="0.2"/>
<path d="M370.702 579.832C379.462 585.364 389.593 588.288 400 588.288C410.408 588.288 420.54 585.364 429.3 579.832L431.884 578.2H368.119L370.702 579.832Z" fill="black" fill-opacity="0.2"/>
<path d="M447.184 561.564H352.815L353.686 562.924C355.618 565.94 357.859 568.784 360.347 571.376L360.608 571.648H439.392L439.652 571.376C442.14 568.784 444.384 565.94 446.316 562.924L447.184 561.564Z" fill="black" fill-opacity="0.2"/>
<path d="M555.012 583.848V482.82L554.468 482.592C551.736 481.452 548.892 480.532 546.016 479.852L544.928 479.596V587.072L546.016 586.816C548.896 586.136 551.74 585.212 554.468 584.072L555.012 583.848Z" fill="black" fill-opacity="0.2"/>
<path d="M486.836 562.632L488.464 565.216V501.452L486.836 504.032C481.304 512.792 478.38 522.924 478.38 533.332C478.38 543.74 481.304 553.872 486.836 562.632Z" fill="black" fill-opacity="0.2"/>
<path d="M537.56 588.128L538.376 588.064V478.6L537.56 478.54C534.764 478.328 531.9 478.328 529.108 478.54L528.292 478.6V588.064L529.108 588.128C530.504 588.232 531.928 588.288 533.332 588.288C534.74 588.288 536.16 588.232 537.56 588.128Z" fill="black" fill-opacity="0.2"/>
<path d="M495.016 493.941V572.725L495.288 572.989C497.88 575.473 500.724 577.717 503.744 579.649L505.104 580.517V486.149L503.744 487.021C500.724 488.953 497.88 491.193 495.288 493.681L495.016 493.941Z" fill="black" fill-opacity="0.2"/>
<path d="M521.739 587.072V479.596L520.651 479.852C517.771 480.532 514.927 481.452 512.195 482.592L511.651 482.82V583.848L512.195 584.072C514.927 585.212 517.771 586.136 520.651 586.816L521.739 587.072Z" fill="black" fill-opacity="0.2"/>
<path d="M578.2 501.452V565.216L579.832 562.632C585.364 553.872 588.288 543.74 588.288 533.332C588.288 522.924 585.364 512.792 579.832 504.032L578.2 501.452Z" fill="black" fill-opacity="0.2"/>
<path d="M571.647 572.725V493.941L571.376 493.681C568.784 491.193 565.939 488.953 562.923 487.021L561.563 486.149V580.517L562.923 579.649C565.939 577.717 568.784 575.473 571.376 572.989L571.647 572.725Z" fill="black" fill-opacity="0.2"/>
<path d="M717.408 554.469C718.548 551.737 719.468 548.893 720.148 546.017L720.404 544.929H612.928L613.184 546.017C613.864 548.897 614.788 551.741 615.924 554.469L616.152 555.013H717.18L717.408 554.469Z" fill="black" fill-opacity="0.2"/>
<path d="M695.964 486.836C687.204 481.304 677.072 478.38 666.668 478.38C656.26 478.38 646.128 481.304 637.368 486.836L634.784 488.464H698.548L695.964 486.836Z" fill="black" fill-opacity="0.2"/>
<path d="M721.4 528.292H611.936L611.872 529.108C611.768 530.504 611.712 531.928 611.712 533.332C611.712 534.74 611.768 536.16 611.872 537.56L611.936 538.376H721.4L721.46 537.56C721.672 534.764 721.672 531.9 721.46 529.108L721.4 528.292Z" fill="black" fill-opacity="0.2"/>
<path d="M619.48 505.104H713.852L712.98 503.744C711.048 500.724 708.808 497.88 706.32 495.288L706.06 495.016H627.272L627.012 495.288C624.524 497.88 622.284 500.724 620.352 503.744L619.48 505.104Z" fill="black" fill-opacity="0.2"/>
<path d="M615.924 512.196C614.788 514.928 613.864 517.772 613.184 520.652L612.928 521.74H720.404L720.148 520.652C719.468 517.772 718.548 514.928 717.408 512.196L717.18 511.652H616.152L615.924 512.196Z" fill="black" fill-opacity="0.2"/>
<path d="M637.368 579.832C646.128 585.364 656.26 588.288 666.668 588.288C677.072 588.288 687.204 585.364 695.964 579.832L698.548 578.2H634.784L637.368 579.832Z" fill="black" fill-opacity="0.2"/>
<path d="M713.852 561.564H619.48L620.352 562.924C622.284 565.94 624.524 568.784 627.012 571.376L627.272 571.648H706.06L706.32 571.376C708.808 568.784 711.048 565.94 712.98 562.924L713.852 561.564Z" fill="black" fill-opacity="0.2"/>
<path d="M755.132 565.216V501.452L753.5 504.032C747.968 512.792 745.048 522.924 745.048 533.332C745.048 543.74 747.968 553.872 753.5 562.632L755.132 565.216Z" fill="black" fill-opacity="0.2"/>
<path d="M795.773 478.54L794.957 478.6V588.064L795.773 588.128C797.173 588.232 798.593 588.288 800.001 588.288V478.38C798.585 478.38 797.169 478.432 795.773 478.54Z" fill="black" fill-opacity="0.2"/>
<path d="M770.409 579.649L771.769 580.517V486.149L770.409 487.021C767.393 488.953 764.549 491.193 761.957 493.681L761.685 493.941V572.725L761.957 572.989C764.549 575.473 767.393 577.717 770.409 579.649Z" fill="black" fill-opacity="0.2"/>
<path d="M787.32 586.816L788.404 587.072V479.596L787.32 479.852C784.44 480.532 781.596 481.452 778.864 482.592L778.32 482.82V583.848L778.864 584.072C781.592 585.212 784.44 586.136 787.32 586.816Z" fill="black" fill-opacity="0.2"/>
</g>
<defs>
<clipPath id="clip0_669_2083">
<rect width="800.001" height="800" fill="white"/>
</clipPath>
</defs>
</svg>
